<svg width="171" height="58" viewBox="0 0 171 58" fill="none" xmlns="http://www.w3.org/2000/svg"><path d="M16.13 8.154H5.449L.395 13.208V0h23.89L16.13 8.154z" fill="#F63"/><path d="M24.284 4.077v2.526l-6.202 6.26H7.401L.395 19.81v-2.527l6.26-6.201h10.68l6.95-7.006z" fill="#F63"/><path d="M19.23 15.736H8.55L.395 23.891h23.89V10.683l-5.054 5.053z" fill="#F63"/><path d="M36.23 0v23.889h13.438v-3.56H40.02V0h-3.79zm16.538 3.503h3.79V0h-3.79v3.503zM56.5 23.889h-3.675V6.029H56.5v17.86z" fill="#fff"/><path fill-rule="evenodd" clip-rule="evenodd" d="M79.355 14.988c0 5.34-3.848 9.36-9.303 9.36-2.527 0-4.709-.918-6.317-2.469l-.632 2.01h-2.641V0h3.675v7.695c1.55-1.32 3.618-2.067 5.915-2.067 5.398 0 9.303 3.962 9.303 9.36zm-3.79 0c0-3.388-2.47-5.857-5.8-5.857-3.33 0-5.858 2.526-5.858 5.857 0 3.33 2.47 5.858 5.858 5.858 3.33 0 5.8-2.527 5.8-5.858zm24.176 1.264h-14.47c.401 2.87 2.526 4.651 5.454 4.651 2.125 0 3.848-.976 4.824-2.642h3.848c-1.436 3.79-4.71 6.03-8.672 6.03-5.225 0-9.188-4.02-9.188-9.36s3.963-9.36 9.188-9.36c5.456 0 9.074 4.191 9.074 9.417 0 .402 0 .862-.058 1.264zm-14.413-2.987h10.796c-.69-2.699-2.7-4.307-5.398-4.307-2.814-.057-4.767 1.608-5.398 4.307z" fill="#fff"/><path d="M111.398 9.418c-3.044 0-4.594 1.723-4.594 4.939v9.532h-3.676V6.03h2.298l.803 2.47c1.264-1.723 3.044-2.527 5.456-2.527h1.608v3.446h-1.895zm13.726 11.142c-2.183 0-3.331-1.207-3.331-3.331v-7.81h5.283V6.26h-5.283V2.528l-6.834 6.833h3.216v8.155c0 3.962 2.412 6.374 6.317 6.374h2.699v-3.33h-2.067z" fill="#fff"/><path fill-rule="evenodd" clip-rule="evenodd" d="M147.406 16.252h-14.471c.402 2.87 2.527 4.651 5.455 4.651 2.125 0 3.848-.976 4.824-2.642h3.848c-1.436 3.79-4.709 6.03-8.672 6.03-5.225 0-9.188-4.02-9.188-9.36s3.963-9.36 9.188-9.36c5.456 0 9.074 4.191 9.074 9.417 0 .201-.015.416-.029.631-.014.216-.029.432-.029.633zm-14.414-2.987h10.796c-.689-2.699-2.699-4.307-5.398-4.307-2.813-.057-4.766 1.608-5.398 4.307z" fill="#fff"/><path d="M151.482 23.89h-4.019l6.374-9.245-5.858-8.614h4.078l3.962 6.03 4.077-6.03h4.02l-5.915 8.441 6.432 9.418h-4.135l-4.479-6.834-4.537 6.834zM164.748.517h1.148V0h-2.986v.517h1.263v2.986h.575V.517zm3.56 2.986h.115l1.148-2.584.46 2.584h.574L170.031 0h-.517l-1.206 2.584L167.102 0h-.517l-.574 3.503h.574l.46-2.584 1.263 2.584z" fill="#fff"/><path d="M13.541 40.06v-1.519h-1.755l.62-4.173h-1.668l-.642 4.173H6.158l.642-4.173H5.11l-.643 4.173H2.135v1.52H4.21l-.535 3.36H1.643v1.583h1.776l-.685 4.344h1.69l.685-4.344h4.002l-.62 4.344h1.669l.663-4.344h2.226v-1.583H11.08l.492-3.36h1.969zm-4.173 3.36h-3.98l.535-3.36H9.86l-.492 3.36zm16.512-9.052H14.902v1.777h4.558v13.203h1.862V36.145h4.558v-1.777zm6.294 3.382c-1.67 0-2.868.62-3.702 1.819l-.279-1.777h-1.305v11.556h1.82v-6.27c0-2.247 1.198-3.616 3.316-3.616h1.177V37.75h-1.027zm12.48.042l-.236 1.777c-1.07-1.263-2.675-2.012-4.559-2.012-3.424 0-5.992 2.568-5.992 6.035 0 3.424 2.569 6.013 5.992 6.013 1.884 0 3.467-.749 4.537-1.99l.193 1.733h1.498V37.792h-1.434zM39.987 47.85c-2.44 0-4.259-1.84-4.259-4.28 0-2.418 1.82-4.258 4.259-4.258 2.46 0 4.237 1.819 4.237 4.258 0 2.461-1.776 4.28-4.237 4.28zM59.08 33.684v5.585c-1.07-1.07-2.568-1.712-4.28-1.712-3.466 0-5.97 2.568-5.97 6.035 0 3.424 2.504 6.013 5.97 6.013 1.82 0 3.382-.706 4.452-1.883l.235 1.648H60.9V33.684h-1.819zM54.93 47.85c-2.44 0-4.237-1.819-4.237-4.258 0-2.461 1.797-4.28 4.237-4.28 2.46 0 4.258 1.84 4.258 4.28 0 2.418-1.797 4.258-4.258 4.258zm20.445-4.215c0-3.382-2.311-6.078-5.82-6.078-3.36 0-5.886 2.59-5.886 6.013 0 3.446 2.525 6.035 5.885 6.035 2.504 0 4.537-1.39 5.521-3.766H73.15c-.706 1.241-1.99 1.99-3.595 1.99-2.183 0-3.788-1.412-4.066-3.552h9.844c.022-.214.043-.428.043-.642zm-5.82-4.366c2.054 0 3.616 1.284 4.001 3.338h-8.025c.364-2.011 1.926-3.338 4.023-3.338zm16.991-3.103v-1.798h-8.41v14.98h1.883v-6.505h5.97v-1.734h-5.97v-4.943h6.527zm7.674 13.44c3.488 0 6.12-2.569 6.12-6.036 0-3.445-2.632-6.013-6.12-6.013-3.51 0-6.142 2.547-6.142 6.013 0 3.467 2.632 6.035 6.142 6.035zm0-1.756c-2.483 0-4.28-1.797-4.28-4.28 0-2.46 1.797-4.258 4.28-4.258 2.46 0 4.258 1.797 4.258 4.28 0 2.46-1.797 4.258-4.258 4.258zm14.171-10.1c-1.67 0-2.868.62-3.703 1.819l-.278-1.777h-1.305v11.556h1.819v-6.27c0-2.247 1.198-3.616 3.317-3.616h1.177V37.75h-1.027zm20.29 11.598l-2.482-14.98h-1.862l-4.965 11-4.943-11h-1.819l-2.525 14.98h1.926l1.968-11.684 5.158 11.32h.513l5.158-11.32 1.947 11.684h1.926zm7.9.257c3.488 0 6.12-2.568 6.12-6.035 0-3.445-2.632-6.013-6.12-6.013-3.51 0-6.142 2.547-6.142 6.013 0 3.467 2.632 6.035 6.142 6.035zm0-1.755c-2.482 0-4.28-1.797-4.28-4.28 0-2.46 1.798-4.258 4.28-4.258 2.461 0 4.259 1.797 4.259 4.28 0 2.46-1.798 4.258-4.259 4.258zm14.171-10.1c-1.67 0-2.868.62-3.703 1.819l-.278-1.777h-1.305v11.556h1.819v-6.27c0-2.247 1.198-3.616 3.317-3.616h1.177V37.75h-1.027zm13.42 5.885c0-3.382-2.311-6.078-5.82-6.078-3.36 0-5.885 2.59-5.885 6.013 0 3.446 2.525 6.035 5.885 6.035 2.503 0 4.536-1.39 5.521-3.766h-1.926c-.706 1.241-1.99 1.99-3.595 1.99-2.183 0-3.788-1.412-4.066-3.552h9.844c.021-.214.042-.428.042-.642zm-5.82-4.366c2.054 0 3.616 1.284 4.001 3.338h-8.025c.364-2.011 1.926-3.338 4.024-3.338z" fill="#F63"/></svg>