<svg width="19" height="18" viewBox="0 0 19 18" fill="none" xmlns="http://www.w3.org/2000/svg">
<path d="M9.33679 0.0541992C14.2616 0.0541992 18.2539 4.04652 18.2539 8.97131C18.2539 13.422 14.9931 17.1111 10.7301 17.7801V11.5489H12.8078L13.2032 8.97131H10.7301V7.29935C10.7301 6.59417 11.0756 5.90606 12.1833 5.90605H13.3077V3.71161C13.3077 3.71161 13.3055 3.71123 13.3011 3.7105C13.2296 3.69858 12.5891 3.59415 11.858 3.55352C11.679 3.54357 11.4945 3.53745 11.3116 3.53745C9.27479 3.53745 7.94349 4.77191 7.94349 7.00676V8.97131H5.67938V11.5489H7.94349V17.7801C3.68052 17.1111 0.419678 13.422 0.419678 8.97131C0.419678 4.04652 4.412 0.0541992 9.33679 0.0541992Z" fill="#ffffff"/>
</svg>
