<svg fill="none" height="18" viewBox="0 0 18 18" width="18" xmlns="http://www.w3.org/2000/svg"><g fill="#fff"><path d="M9 1.62c2.405 0 2.69.011 3.635.053.88.04 1.354.187 1.67.31.418.162.72.358 1.034.671.316.317.51.616.671 1.034.123.316.27.794.31 1.67.042.949.052 1.234.052 3.635 0 2.405-.01 2.69-.052 3.635-.04.879-.187 1.354-.31 1.67-.162.418-.358.72-.671 1.034-.317.316-.616.51-1.034.671-.316.123-.794.27-1.67.31-.95.042-1.234.052-3.635.052-2.405 0-2.69-.01-3.635-.052-.88-.04-1.354-.187-1.67-.31a2.783 2.783 0 01-1.034-.671 2.768 2.768 0 01-.671-1.034c-.123-.316-.27-.794-.31-1.67-.042-.95-.052-1.234-.052-3.635 0-2.405.01-2.69.052-3.635.04-.88.187-1.354.31-1.67.162-.418.358-.72.671-1.034.317-.316.616-.51 1.034-.671.316-.123.794-.27 1.67-.31.946-.042 1.23-.052 3.635-.052zM9 0C6.557 0 6.25.01 5.291.053 4.335.095 3.677.25 3.108.47a4.393 4.393 0 00-1.596 1.04 4.41 4.41 0 00-1.04 1.593C.25 3.677.094 4.331.051 5.287.012 6.252 0 6.557 0 9s.01 2.75.053 3.709c.042.956.197 1.614.418 2.183a4.393 4.393 0 001.04 1.596 4.4 4.4 0 001.593 1.037c.573.222 1.227.377 2.183.419.96.042 1.266.052 3.71.052 2.443 0 2.749-.01 3.709-.052.956-.042 1.613-.197 2.183-.419a4.4 4.4 0 001.592-1.037 4.4 4.4 0 001.037-1.592c.222-.573.376-1.227.419-2.184.042-.96.052-1.265.052-3.708 0-2.444-.01-2.75-.052-3.71-.043-.956-.197-1.613-.419-2.183a4.216 4.216 0 00-1.03-1.6A4.4 4.4 0 0014.896.476c-.573-.222-1.227-.377-2.184-.419C11.75.011 11.443 0 9 0z"/><path d="M9 4.377a4.624 4.624 0 000 9.246 4.624 4.624 0 000-9.246zm0 7.622A3 3 0 119 6a3 3 0 010 6zm5.885-7.805a1.08 1.08 0 11-2.159 0 1.08 1.08 0 012.16 0z"/></g></svg>