<svg width="126" height="18" viewBox="0 0 126 18" fill="none" xmlns="http://www.w3.org/2000/svg"><path d="M11.632 6.028H3.735L0 9.764V0h17.66l-6.028 6.028z" fill="#F63"/><path d="M17.66 3.014v1.868l-4.585 4.627H5.179l-5.18 5.137v-1.868l4.628-4.585h7.896l5.137-5.18z" fill="#F63"/><path d="M13.924 11.633H6.028L0 17.662h17.66V7.897l-3.736 3.736z" fill="#F63"/><path d="M26.491 0v17.66h9.934v-2.632h-7.132V0h-2.802zm12.226 2.59h2.802V0h-2.802v2.59zm2.759 15.07H38.76V4.458h2.717V17.66z" fill="#fff"/><path fill-rule="evenodd" clip-rule="evenodd" d="M58.372 11.08c0 3.948-2.844 6.92-6.877 6.92-1.868 0-3.482-.68-4.67-1.826l-.467 1.486h-1.953V0h2.717v5.689c1.146-.977 2.675-1.529 4.373-1.529 3.99 0 6.877 2.93 6.877 6.92zm-2.802 0c0-2.505-1.825-4.33-4.288-4.33-2.462 0-4.33 1.868-4.33 4.33 0 2.463 1.826 4.33 4.33 4.33 2.463 0 4.288-1.867 4.288-4.33zm17.873.934H62.745c.297 2.123 1.868 3.439 4.033 3.439 1.57 0 2.844-.722 3.566-1.953h2.844c-1.061 2.802-3.48 4.458-6.41 4.458-3.863 0-6.793-2.972-6.793-6.92s2.93-6.92 6.793-6.92c4.033 0 6.707 3.1 6.707 6.962 0 .297 0 .637-.042.934zM62.787 9.807h7.981c-.509-1.996-1.995-3.184-3.99-3.184-2.08-.043-3.524 1.188-3.99 3.184z" fill="#fff"/><path d="M82.06 6.962c-2.25 0-3.396 1.274-3.396 3.651v7.047h-2.717V4.458h1.698l.594 1.825c.934-1.273 2.25-1.868 4.033-1.868h1.19v2.547H82.06zm10.147 8.237c-1.613 0-2.462-.892-2.462-2.463V6.963h3.905V4.628h-3.905v-2.76L84.693 6.92h2.377v6.029c0 2.929 1.783 4.712 4.67 4.712h1.996v-2.462h-1.529z" fill="#fff"/><path fill-rule="evenodd" clip-rule="evenodd" d="M108.68 12.014H97.982c.297 2.123 1.868 3.439 4.033 3.439 1.571 0 2.844-.722 3.566-1.953h2.844c-1.061 2.802-3.481 4.458-6.41 4.458-3.863 0-6.793-2.972-6.793-6.92s2.93-6.92 6.793-6.92c4.033 0 6.707 3.099 6.707 6.962 0 .149-.01.308-.021.467-.01.159-.021.319-.021.467zM98.024 9.807h7.982c-.51-1.996-1.996-3.184-3.991-3.184-2.08-.043-3.524 1.188-3.99 3.184z" fill="#fff"/><path d="M111.693 17.661h-2.971l4.712-6.835-4.33-6.368h3.014l2.929 4.458 3.014-4.458h2.972l-4.373 6.24 4.755 6.963h-3.057l-3.311-5.052-3.354 5.052zM121.5.382h.849V0h-2.208v.382h.934V2.59h.425V.382zm2.632 2.208h.085l.849-1.91.34 1.91h.424L125.406 0h-.383l-.891 1.91L123.24 0h-.382l-.424 2.59h.424l.34-1.91.934 1.91z" fill="#fff"/></svg>