<svg width="206" height="30" viewBox="0 0 206 30" fill="none" xmlns="http://www.w3.org/2000/svg"><path d="M43.57 29.039V.159h4.598v24.602h11.636v4.278H43.57zM68.133 4.403h-4.597V.16h4.597v4.243zm-.081 24.636h-4.438V7.449h4.438v21.59z" fill="#fff"/><path fill-rule="evenodd" clip-rule="evenodd" d="M84.405 29.56c6.556 0 11.236-4.839 11.236-11.316 0-6.517-4.68-11.315-11.236-11.315a10.876 10.876 0 00-7.117 2.517V.16H72.85v28.879h3.163l.756-2.438a11.001 11.001 0 007.636 2.96zm-.36-18.394c4.08 0 7.037 2.999 7.037 7.078 0 4.04-2.957 7.078-7.036 7.078-4.08 0-7.078-3.08-7.078-7.078 0-4.037 2.999-7.078 7.078-7.078zm36.275 8.598h-17.514c.52 3.476 3.039 5.636 6.598 5.636 2.55 0 4.677-1.198 5.794-3.159h4.679c-1.719 4.56-5.678 7.32-10.475 7.32-6.317 0-11.124-4.88-11.124-11.317 0-6.478 4.8-11.315 11.124-11.315 6.596 0 10.995 5.078 10.995 11.356.002.487-.037 1-.077 1.479zm-17.435-3.6h13.076c-.8-3.279-3.28-5.237-6.557-5.237-3.36 0-5.759 1.998-6.519 5.238z" fill="#fff"/><path d="M128.87 17.523c0-3.91 1.837-5.996 5.518-5.996h2.317V7.328h-1.919c-2.918 0-5.038.994-6.598 3.08l-.955-2.96h-2.802v21.59h4.439V17.524zm22.111 7.479c-2.639 0-4.039-1.44-4.039-3.998v-9.477h6.359V7.73h-6.396V3.013l-8.524 8.524h4.125v9.835c0 4.758 2.918 7.676 7.634 7.676h3.282v-4.046h-2.441z" fill="#fff"/><path fill-rule="evenodd" clip-rule="evenodd" d="M160.388 19.764h17.514l.024-.316c.029-.385.06-.782.069-1.163 0-6.278-4.399-11.356-10.997-11.356-6.327 0-11.124 4.837-11.124 11.315 0 6.438 4.806 11.316 11.124 11.316 4.797 0 8.756-2.76 10.475-7.319h-4.693c-1.115 1.961-3.244 3.16-5.794 3.16-3.557 0-6.076-2.16-6.598-5.637zm13.157-3.6h-13.076c.76-3.24 3.159-5.237 6.517-5.237 3.28 0 5.757 1.959 6.559 5.238z" fill="#fff"/><path d="M182.866 29.039h-4.867l7.676-11.155-7.078-10.428h4.96l4.797 7.277 4.918-7.277h4.867l-7.199 10.197 7.757 11.395h-5.001l-5.398-8.236-5.432 8.227zM198.82.788h1.409V.16h-3.599v.628h1.511v3.615h.679V.788zm4.329 3.615h.153l1.493-3.156.544 3.156H206L205.284.16h-.607l-1.46 3.108L201.756.16h-.593l-.714 4.243h.663l.542-3.156 1.495 3.156z" fill="#fff"/><g clip-path="url(#clip0_5_382)" fill="#F63"><path d="M29.201 4.988v3.083l-7.619 7.62-13.058-.001L0 24.213v-3.084l7.62-7.62 13.06.001 8.52-8.522z"/><path d="M23.043 19.217H9.984L0 29.2h29.201V13.06l-6.158 6.158zM6.16 9.983h13.058L29.202.001V0H0v16.143l6.16-6.16z"/></g><defs><clipPath id="clip0_5_382"><path fill="#fff" d="M0 0h29.201v29.201H0z"/></clipPath></defs></svg>