<svg fill="none" height="18" viewBox="0 0 18 18" width="18" xmlns="http://www.w3.org/2000/svg"><path clip-rule="evenodd" d="M9 0c4.967 0 9 4.028 9 9 0 4.967-4.028 9-9 9-4.967 0-9-4.028-9-9 0-4.967 4.028-9 9-9zm1.949 4.017c.167 1.414.956 2.257 2.321 2.343v1.587c-.793.076-1.49-.183-2.3-.67v2.97c0 3.78-4.119 4.956-5.77 2.251-1.064-1.738-.411-4.8 3.001-4.918v1.68a5.09 5.09 0 00-.788.194c-.762.253-1.188.74-1.07 1.587.233 1.625 3.213 2.105 2.965-1.07V4.023h1.646z" fill="#fff" fill-rule="evenodd"/></svg>