<svg width="18" height="18" viewBox="0 0 18 18" fill="none" xmlns="http://www.w3.org/2000/svg"><path d="M5.66 16.313c6.793 0 10.508-5.627 10.508-10.507 0-.16 0-.32-.01-.478A7.513 7.513 0 0018 3.417a7.362 7.362 0 01-2.121.58 3.705 3.705 0 001.624-2.042 7.398 7.398 0 01-2.346.896A3.696 3.696 0 008.864 6.22a10.485 10.485 0 01-7.611-3.86 3.696 3.696 0 001.143 4.93A3.66 3.66 0 01.72 6.829v.047a3.694 3.694 0 002.963 3.62 3.685 3.685 0 01-1.668.063 3.698 3.698 0 003.45 2.565A7.41 7.41 0 010 14.654a10.456 10.456 0 005.66 1.656" fill="#fff"/></svg>