<svg width="18" height="18" viewBox="0 0 18 18" fill="none" xmlns="http://www.w3.org/2000/svg"><g clip-path="url(#clip0)"><path d="M17.642 4.639a2.263 2.263 0 00-1.592-1.602c-1.407-.378-7.032-.378-7.032-.378s-5.625 0-7.032.378A2.262 2.262 0 00.394 4.64C.018 6.052.018 8.999.018 8.999s0 2.948.376 4.362a2.263 2.263 0 001.592 1.601c1.407.379 7.032.379 7.032.379s5.625 0 7.032-.379a2.263 2.263 0 001.591-1.601c.377-1.414.377-4.361.377-4.361s0-2.948-.377-4.361z" fill="#fff"/><path d="M7.177 11.676V6.323L11.882 9l-4.705 2.676z" fill="#000"/></g><defs><clipPath id="clip0"><path fill="#fff" d="M0 0h18v18H0z"/></clipPath></defs></svg>